<svg id="Layer_1" data-name="Layer 1" xmlns="http://www.w3.org/2000/svg" xmlns:xlink="http://www.w3.org/1999/xlink" viewBox="0 0 1600 900"><defs><style>.cls-1{fill:none;}.cls-2{clip-path:url(#clip-path);}.cls-3{fill:#0297a7;}.cls-4{fill:#445a64;}.cls-5{fill:#008390;}.cls-6{fill:#445a65;}.cls-7{fill:#36474f;}.cls-8{fill:#e2e2e2;}.cls-9{fill:#09bcd4;opacity:0.47;}.cls-10{opacity:0.84;fill:url(#linear-gradient);}.cls-11{fill:#006065;opacity:0.45;}.cls-12{fill:#00acc3;}</style><clipPath id="clip-path"><rect class="cls-1" width="1600" height="900"/></clipPath><linearGradient id="linear-gradient" x1="780.33" y1="892.16" x2="780.33" y2="-105.17" gradientUnits="userSpaceOnUse"><stop offset="0" stop-color="#fff" stop-opacity="0"/><stop offset="1" stop-color="#ffecaf"/></linearGradient></defs><title>Come-To-Class</title><g class="cls-2"><rect class="cls-3" y="-5.97" width="1600.91" height="898.13"/><rect class="cls-4" y="758.8" width="1600.91" height="141.2"/><rect class="cls-5" x="506.54" y="408.19" width="591.61" height="355.59"/><rect class="cls-6" x="830.05" y="564.6" width="21.71" height="83.22" rx="10.86" ry="10.86"/><rect class="cls-6" x="872.93" y="564.6" width="21.71" height="83.22" rx="10.86" ry="10.86"/><circle class="cls-6" cx="861.43" cy="463.01" r="23.41"/><path class="cls-6" d="M861.43,493.48a43.46,43.46,0,0,0-40.69,28.25h81.37A43.46,43.46,0,0,0,861.43,493.48Z"/><path class="cls-6" d="M861.43,590.47a43.46,43.46,0,0,0,40.69-28.25H820.75A43.46,43.46,0,0,0,861.43,590.47Z"/><rect class="cls-7" x="807.28" y="521.73" width="108.31" height="41.06"/><rect class="cls-7" x="808.16" y="578.89" width="107.31" height="19.9"/><polygon class="cls-7" points="817.24 660.88 810.35 660.97 818.81 556.76 825.7 557.32 817.24 660.88"/><rect class="cls-7" x="904.52" y="556.87" width="6.91" height="104.56" transform="translate(1862.25 1142.85) rotate(175.36)"/><rect class="cls-6" x="957.7" y="564.6" width="21.71" height="83.22" rx="10.86" ry="10.86"/><rect class="cls-6" x="1000.58" y="564.6" width="21.71" height="83.22" rx="10.86" ry="10.86"/><circle class="cls-6" cx="989.08" cy="463.01" r="23.41"/><path class="cls-6" d="M989.08,493.48a43.46,43.46,0,0,0-40.69,28.25h81.37A43.46,43.46,0,0,0,989.08,493.48Z"/><path class="cls-6" d="M989.08,590.47a43.46,43.46,0,0,0,40.69-28.25H948.39A43.46,43.46,0,0,0,989.08,590.47Z"/><rect class="cls-7" x="934.93" y="521.73" width="108.31" height="41.06"/><rect class="cls-7" x="935.81" y="578.89" width="107.31" height="19.9"/><polygon class="cls-7" points="944.88 660.88 938 660.97 946.46 556.76 953.34 557.32 944.88 660.88"/><rect class="cls-7" x="1032.17" y="556.87" width="6.91" height="104.56" transform="translate(2117.12 1132.53) rotate(175.36)"/><rect class="cls-6" x="702.41" y="564.6" width="21.71" height="83.22" rx="10.86" ry="10.86"/><rect class="cls-6" x="745.28" y="564.6" width="21.71" height="83.22" rx="10.86" ry="10.86"/><circle class="cls-6" cx="733.78" cy="463.01" r="23.41"/><path class="cls-6" d="M733.78,493.48a43.46,43.46,0,0,0-40.69,28.25h81.37A43.46,43.46,0,0,0,733.78,493.48Z"/><path class="cls-6" d="M733.78,590.47a43.46,43.46,0,0,0,40.69-28.25H693.1A43.46,43.46,0,0,0,733.78,590.47Z"/><rect class="cls-7" x="679.63" y="521.73" width="108.31" height="41.06"/><rect class="cls-7" x="680.51" y="578.89" width="107.31" height="19.9"/><rect class="cls-7" x="686.92" y="556.87" width="6.91" height="104.56" transform="translate(51.53 -53.85) rotate(4.64)"/><polygon class="cls-7" points="781.11 660.88 788 660.97 779.54 556.76 772.66 557.32 781.11 660.88"/><rect class="cls-6" x="574.76" y="564.6" width="21.71" height="83.22" rx="10.86" ry="10.86"/><rect class="cls-6" x="617.64" y="564.6" width="21.71" height="83.22" rx="10.86" ry="10.86"/><circle class="cls-6" cx="606.14" cy="463.01" r="23.41"/><path class="cls-6" d="M606.14,493.48a43.46,43.46,0,0,0-40.69,28.25h81.37A43.46,43.46,0,0,0,606.14,493.48Z"/><path class="cls-6" d="M606.14,590.47a43.46,43.46,0,0,0,40.69-28.25H565.45A43.46,43.46,0,0,0,606.14,590.47Z"/><rect class="cls-7" x="551.98" y="521.73" width="108.31" height="41.06"/><rect class="cls-7" x="552.87" y="578.89" width="107.31" height="19.9"/><rect class="cls-7" x="559.27" y="556.87" width="6.91" height="104.56" transform="matrix(1, 0.08, -0.08, 1, 51.11, -43.52)"/><polygon class="cls-7" points="653.47 660.88 660.35 660.97 651.9 556.76 645.01 557.32 653.47 660.88"/><rect class="cls-8" x="713.71" y="169.38" width="170.06" height="195.39"/><path class="cls-7" d="M896.42,377.41H689.76V156.73H896.42V377.41ZM715.05,352.12H875V182H715.05V352.12Z"/><rect class="cls-9" x="521.23" y="136.17" width="174.87" height="595.98"/><path class="cls-6" d="M490.7,102.44V763.78H721V102.44H490.7ZM696.1,732.15H521.23v-596H696.1v596Z"/><rect class="cls-7" x="685.56" y="135" width="10.86" height="597.03"/><rect class="cls-9" x="899.18" y="136.17" width="174.87" height="595.98" transform="translate(1973.22 868.32) rotate(-180)"/><path class="cls-6" d="M874.3,102.44V763.78h230.12V102.44H874.3ZM1074,732.15H899.18v-596H1074v596Z"/><rect class="cls-7" x="898.86" y="135" width="10.86" height="597.15" transform="translate(1808.58 867.15) rotate(-180)"/><polygon class="cls-4" points="822.56 405.2 772.95 405.2 755.66 337.29 839.84 337.29 822.56 405.2"/><circle class="cls-6" cx="797.75" cy="290.8" r="15.65"/><path class="cls-6" d="M797.75,311.16A29.05,29.05,0,0,1,825,330h-54.4A29.05,29.05,0,0,1,797.75,311.16Z"/><rect class="cls-4" x="736.06" y="330.05" width="123.39" height="7.39" transform="translate(1595.51 667.48) rotate(180)"/><rect class="cls-4" x="755.67" y="405.2" width="84.18" height="7.39" transform="translate(1595.51 817.78) rotate(180)"/><polygon class="cls-10" points="732.85 95.21 720.98 95.21 720.98 763.78 214.22 892.16 1346.43 888.65 874.28 763.78 874.28 95.21 732.85 95.21"/><rect class="cls-7" x="460.79" y="73.12" width="673.78" height="29.98"/><rect class="cls-7" x="144.76" y="419.17" width="661.93" height="29.94" transform="translate(909.87 -41.59) rotate(90)"/><rect class="cls-7" x="788.42" y="419.17" width="661.93" height="29.94" transform="translate(1553.53 -685.25) rotate(90)"/><rect class="cls-11" x="1243.7" y="280.49" width="108.38" height="35.75" transform="translate(2595.78 596.73) rotate(180)"/><rect class="cls-12" x="1188.77" y="316.24" width="108.38" height="35.75" transform="translate(2485.92 668.24) rotate(180)"/><rect class="cls-12" x="1188.77" y="150.96" width="108.38" height="35.75" transform="translate(2485.92 337.67) rotate(180)"/><rect class="cls-12" x="1478.95" y="343.86" width="108.38" height="35.75" transform="translate(3066.28 723.47) rotate(180)"/><rect class="cls-11" x="1147.62" y="640.57" width="108.38" height="35.75" transform="translate(2403.62 1316.89) rotate(180)"/><rect class="cls-11" x="193.3" y="238.27" width="108.38" height="35.75" transform="translate(494.99 512.29) rotate(180)"/><rect class="cls-12" x="138.38" y="274.02" width="108.38" height="35.75" transform="translate(385.13 583.8) rotate(180)"/><rect class="cls-11" x="138.38" y="585.37" width="108.38" height="35.75" transform="translate(385.15 1206.49) rotate(180)"/><rect class="cls-12" x="349.98" y="343.86" width="108.38" height="35.75" transform="translate(808.33 723.47) rotate(180)"/></g></svg>