<?xml version="1.0" encoding="utf-8"?>
<!-- Generator: Adobe Illustrator 19.2.0, SVG Export Plug-In . SVG Version: 6.00 Build 0)  -->
<svg version="1.1" id="Layer_1" xmlns="http://www.w3.org/2000/svg" xmlns:xlink="http://www.w3.org/1999/xlink" x="0px" y="0px"
	 viewBox="0 0 1600 900" style="enable-background:new 0 0 1600 900;" xml:space="preserve">
<style type="text/css">
	.st0{fill:#455A64;}
	.st1{fill:#607D8B;}
	.st2{opacity:0.7;}
	.st3{opacity:0.26;clip-path:url(#SVGID_2_);}
	.st4{fill:none;stroke:#607D8B;stroke-width:4.4199;stroke-miterlimit:10;}
	.st5{fill:#ECEFF1;}
	.st6{opacity:0.26;clip-path:url(#SVGID_4_);}
	.st7{fill:none;stroke:#B0BEC5;stroke-width:1.105;stroke-miterlimit:10;}
	.st8{fill:#B0BEC5;}
	.st9{fill:#FFFFFF;}
	.st10{fill:#84FFFF;}
	.st11{fill:#00B8D4;}
	.st12{fill:#00E5FF;}
	.st13{opacity:0.26;clip-path:url(#SVGID_6_);}
	.st14{fill:none;stroke:#607D8B;stroke-width:3.5359;stroke-miterlimit:10;}
	.st15{opacity:0.26;clip-path:url(#SVGID_8_);}
	.st16{fill:none;stroke:#B0BEC5;stroke-width:0.884;stroke-miterlimit:10;}
	.st17{fill:#CFD8DC;}
	.st18{fill:#05B8D4;}
	.st19{opacity:0.26;}
	.st20{fill:none;stroke:#00B8D4;stroke-width:1.105;stroke-miterlimit:10;}
	.st21{fill:none;stroke:#ECEFF1;stroke-width:1.105;stroke-miterlimit:10;}
	.st22{fill:none;}
	.st23{fill:#78909C;}
	.st24{fill:none;stroke:#00B8D4;stroke-width:0.884;stroke-miterlimit:10;}
	.st25{fill:none;stroke:#ECEFF1;stroke-width:0.884;stroke-miterlimit:10;}
	.st26{opacity:0.26;fill:#37474F;}
	.st27{clip-path:url(#SVGID_10_);}
	.st28{opacity:0.26;fill:none;stroke:#84FFFF;stroke-width:1.1046;stroke-miterlimit:10;}
	.st29{fill:#37474F;}
	.st30{fill:#18FFFF;}
	.st31{opacity:0.26;clip-path:url(#SVGID_12_);fill:none;stroke:#B0BEC5;stroke-width:1.1046;stroke-miterlimit:10;}
	.st32{fill:#90A4AE;}
	.st33{clip-path:url(#SVGID_14_);}
	.st34{opacity:0.26;fill:none;stroke:#84FFFF;stroke-width:0.8837;stroke-miterlimit:10;}
	.st35{opacity:0.26;clip-path:url(#SVGID_16_);fill:none;stroke:#B0BEC5;stroke-width:0.8837;stroke-miterlimit:10;}
	.st36{opacity:0.75;}
	.st37{clip-path:url(#SVGID_18_);}
	.st38{opacity:0.26;fill:none;stroke:#37474F;stroke-width:1.1045;stroke-miterlimit:10;}
	.st39{clip-path:url(#SVGID_20_);}
	.st40{opacity:0.26;fill:none;stroke:#84FFFF;stroke-width:1.1131;stroke-miterlimit:10;}
	.st41{clip-path:url(#SVGID_22_);}
	.st42{opacity:0.26;fill:none;stroke:#37474F;stroke-width:0.8836;stroke-miterlimit:10;}
	.st43{clip-path:url(#SVGID_24_);}
	.st44{opacity:0.26;fill:none;stroke:#84FFFF;stroke-width:0.8905;stroke-miterlimit:10;}
	.st45{opacity:0.5;fill:#ECEFF1;}
</style>
<g>
	<rect y="0" class="st0" width="1600" height="900"/>
	<rect y="0" class="st1" width="1600" height="900"/>
	<polygon class="st0" points="1600,393.3 1337.5,130.7 262.5,769.3 393.3,900 1600,900 	"/>
	<g class="st2">
		<defs>
			<polygon id="SVGID_1_" class="st2" points="1600,393.3 1337.5,130.7 262.5,769.3 393.3,900 1600,900 			"/>
		</defs>
		<clipPath id="SVGID_2_">
			<use xlink:href="#SVGID_1_"  style="overflow:visible;"/>
		</clipPath>
		<g class="st3">
			<line class="st4" x1="1073.8" y1="-67" x2="2205.2" y2="1064.4"/>
			<line class="st4" x1="1040.9" y1="-34" x2="2172.3" y2="1097.3"/>
			<line class="st4" x1="1007.9" y1="-1.1" x2="2139.3" y2="1130.3"/>
			<line class="st4" x1="942" y1="64.8" x2="2073.4" y2="1196.2"/>
			<line class="st4" x1="975" y1="31.9" x2="2106.4" y2="1163.2"/>
			<line class="st4" x1="909.1" y1="97.8" x2="2040.5" y2="1229.1"/>
			<line class="st4" x1="876.1" y1="130.7" x2="2007.5" y2="1262.1"/>
			<line class="st4" x1="810.2" y1="196.6" x2="1941.6" y2="1328"/>
			<line class="st4" x1="843.2" y1="163.7" x2="1974.6" y2="1295"/>
			<line class="st4" x1="777.3" y1="229.6" x2="1908.7" y2="1360.9"/>
			<line class="st4" x1="744.3" y1="262.5" x2="1875.7" y2="1393.9"/>
			<line class="st4" x1="678.4" y1="328.4" x2="1809.8" y2="1459.8"/>
			<line class="st4" x1="711.4" y1="295.5" x2="1842.8" y2="1426.9"/>
			<line class="st4" x1="645.5" y1="361.4" x2="1776.8" y2="1492.8"/>
			<line class="st4" x1="612.5" y1="394.3" x2="1743.9" y2="1525.7"/>
			<line class="st4" x1="546.6" y1="460.2" x2="1678" y2="1591.6"/>
			<line class="st4" x1="579.6" y1="427.3" x2="1710.9" y2="1558.7"/>
			<line class="st4" x1="513.7" y1="493.2" x2="1645" y2="1624.6"/>
			<line class="st4" x1="480.7" y1="526.1" x2="1612.1" y2="1657.5"/>
			<line class="st4" x1="414.8" y1="592" x2="1546.2" y2="1723.4"/>
			<line class="st4" x1="447.8" y1="559.1" x2="1579.1" y2="1690.5"/>
			<line class="st4" x1="381.9" y1="625" x2="1513.2" y2="1756.4"/>
			<line class="st4" x1="348.9" y1="657.9" x2="1480.3" y2="1789.3"/>
			<line class="st4" x1="283" y1="723.8" x2="1414.4" y2="1855.2"/>
			<line class="st4" x1="316" y1="690.9" x2="1447.3" y2="1822.3"/>
		</g>
	</g>
	<rect x="262.5" y="130.7" class="st5" width="1074.9" height="638.6"/>
	<g>
		<defs>
			<rect id="SVGID_3_" x="262.5" y="130.7" width="1074.9" height="638.6"/>
		</defs>
		<clipPath id="SVGID_4_">
			<use xlink:href="#SVGID_3_"  style="overflow:visible;"/>
		</clipPath>
		<g class="st6">
			<g>
				<line class="st7" x1="278.1" y1="852" x2="278.1" y2="90.7"/>
				<line class="st7" x1="293.7" y1="852" x2="293.7" y2="90.7"/>
				<line class="st7" x1="309.3" y1="852" x2="309.3" y2="90.7"/>
				<line class="st7" x1="324.8" y1="852" x2="324.8" y2="90.7"/>
				<line class="st7" x1="340.4" y1="852" x2="340.4" y2="90.7"/>
				<line class="st7" x1="356" y1="852" x2="356" y2="90.7"/>
				<line class="st7" x1="371.6" y1="852" x2="371.6" y2="90.7"/>
				<line class="st7" x1="387.1" y1="852" x2="387.1" y2="90.7"/>
				<line class="st7" x1="402.7" y1="852" x2="402.7" y2="90.7"/>
				<line class="st7" x1="418.3" y1="852" x2="418.3" y2="90.7"/>
				<line class="st7" x1="433.9" y1="852" x2="433.9" y2="90.7"/>
				<line class="st7" x1="449.4" y1="852" x2="449.4" y2="90.7"/>
				<line class="st7" x1="465" y1="852" x2="465" y2="90.7"/>
				<line class="st7" x1="480.6" y1="852" x2="480.6" y2="90.7"/>
				<line class="st7" x1="496.1" y1="852" x2="496.1" y2="90.7"/>
				<line class="st7" x1="511.7" y1="852" x2="511.7" y2="90.7"/>
				<line class="st7" x1="527.3" y1="852" x2="527.3" y2="90.7"/>
				<line class="st7" x1="542.9" y1="852" x2="542.9" y2="90.7"/>
				<line class="st7" x1="558.4" y1="852" x2="558.4" y2="90.7"/>
				<line class="st7" x1="574" y1="852" x2="574" y2="90.7"/>
				<line class="st7" x1="589.6" y1="852" x2="589.6" y2="90.7"/>
				<line class="st7" x1="605.2" y1="852" x2="605.2" y2="90.7"/>
				<line class="st7" x1="620.7" y1="852" x2="620.7" y2="90.7"/>
				<line class="st7" x1="636.3" y1="852" x2="636.3" y2="90.7"/>
				<line class="st7" x1="651.9" y1="852" x2="651.9" y2="90.7"/>
				<line class="st7" x1="667.5" y1="852" x2="667.5" y2="90.7"/>
				<line class="st7" x1="683" y1="852" x2="683" y2="90.7"/>
				<line class="st7" x1="698.6" y1="852" x2="698.6" y2="90.7"/>
				<line class="st7" x1="714.2" y1="852" x2="714.2" y2="90.7"/>
				<line class="st7" x1="729.8" y1="852" x2="729.8" y2="90.7"/>
				<line class="st7" x1="745.3" y1="852" x2="745.3" y2="90.7"/>
				<line class="st7" x1="760.9" y1="852" x2="760.9" y2="90.7"/>
				<line class="st7" x1="776.5" y1="852" x2="776.5" y2="90.7"/>
				<line class="st7" x1="792.1" y1="852" x2="792.1" y2="90.7"/>
				<line class="st7" x1="807.6" y1="852" x2="807.6" y2="90.7"/>
				<line class="st7" x1="823.2" y1="852" x2="823.2" y2="90.7"/>
				<line class="st7" x1="838.8" y1="852" x2="838.8" y2="90.7"/>
				<line class="st7" x1="854.3" y1="852" x2="854.3" y2="90.7"/>
				<line class="st7" x1="869.9" y1="852" x2="869.9" y2="90.7"/>
				<line class="st7" x1="885.5" y1="852" x2="885.5" y2="90.7"/>
				<line class="st7" x1="901.1" y1="852" x2="901.1" y2="90.7"/>
				<line class="st7" x1="916.6" y1="852" x2="916.6" y2="90.7"/>
				<line class="st7" x1="932.2" y1="852" x2="932.2" y2="90.7"/>
				<line class="st7" x1="947.8" y1="852" x2="947.8" y2="90.7"/>
				<line class="st7" x1="963.4" y1="852" x2="963.4" y2="90.7"/>
				<line class="st7" x1="978.9" y1="852" x2="978.9" y2="90.7"/>
				<line class="st7" x1="994.5" y1="852" x2="994.5" y2="90.7"/>
				<line class="st7" x1="1010.1" y1="852" x2="1010.1" y2="90.7"/>
				<line class="st7" x1="1025.7" y1="852" x2="1025.7" y2="90.7"/>
				<line class="st7" x1="1041.2" y1="852" x2="1041.2" y2="90.7"/>
				<line class="st7" x1="1056.8" y1="852" x2="1056.8" y2="90.7"/>
				<line class="st7" x1="1072.4" y1="852" x2="1072.4" y2="90.7"/>
				<line class="st7" x1="1088" y1="852" x2="1088" y2="90.7"/>
				<line class="st7" x1="1103.5" y1="852" x2="1103.5" y2="90.7"/>
				<line class="st7" x1="1119.1" y1="852" x2="1119.1" y2="90.7"/>
				<line class="st7" x1="1134.7" y1="852" x2="1134.7" y2="90.7"/>
				<line class="st7" x1="1150.3" y1="852" x2="1150.3" y2="90.7"/>
				<line class="st7" x1="1165.8" y1="852" x2="1165.8" y2="90.7"/>
				<line class="st7" x1="1181.4" y1="852" x2="1181.4" y2="90.7"/>
				<line class="st7" x1="1197" y1="852" x2="1197" y2="90.7"/>
				<line class="st7" x1="1212.5" y1="852" x2="1212.5" y2="90.7"/>
				<line class="st7" x1="1228.1" y1="852" x2="1228.1" y2="90.7"/>
				<line class="st7" x1="1243.7" y1="852" x2="1243.7" y2="90.7"/>
				<line class="st7" x1="1259.3" y1="852" x2="1259.3" y2="90.7"/>
				<line class="st7" x1="1274.8" y1="852" x2="1274.8" y2="90.7"/>
				<line class="st7" x1="1290.4" y1="852" x2="1290.4" y2="90.7"/>
				<line class="st7" x1="1306" y1="852" x2="1306" y2="90.7"/>
				<line class="st7" x1="1321.6" y1="852" x2="1321.6" y2="90.7"/>
			</g>
			<g>
				<line class="st7" x1="1359.2" y1="145.9" x2="238.3" y2="145.9"/>
				<line class="st7" x1="1359.2" y1="161.1" x2="238.3" y2="161.1"/>
				<line class="st7" x1="1359.2" y1="176.3" x2="238.3" y2="176.3"/>
				<line class="st7" x1="1359.2" y1="191.5" x2="238.3" y2="191.5"/>
				<line class="st7" x1="1359.2" y1="206.7" x2="238.3" y2="206.7"/>
				<line class="st7" x1="1359.2" y1="221.9" x2="238.3" y2="221.9"/>
				<line class="st7" x1="1359.2" y1="237.1" x2="238.3" y2="237.1"/>
				<line class="st7" x1="1359.2" y1="252.4" x2="238.3" y2="252.4"/>
				<line class="st7" x1="1359.2" y1="267.6" x2="238.3" y2="267.6"/>
				<line class="st7" x1="1359.2" y1="282.8" x2="238.3" y2="282.8"/>
				<line class="st7" x1="1359.2" y1="298" x2="238.3" y2="298"/>
				<line class="st7" x1="1359.2" y1="313.2" x2="238.3" y2="313.2"/>
				<line class="st7" x1="1359.2" y1="328.4" x2="238.3" y2="328.4"/>
				<line class="st7" x1="1359.2" y1="343.6" x2="238.3" y2="343.6"/>
				<line class="st7" x1="1359.2" y1="358.8" x2="238.3" y2="358.8"/>
				<line class="st7" x1="1359.2" y1="374" x2="238.3" y2="374"/>
				<line class="st7" x1="1359.2" y1="389.2" x2="238.3" y2="389.2"/>
				<line class="st7" x1="1359.2" y1="404.4" x2="238.3" y2="404.4"/>
				<line class="st7" x1="1359.2" y1="419.6" x2="238.3" y2="419.6"/>
				<line class="st7" x1="1359.2" y1="434.8" x2="238.3" y2="434.8"/>
				<line class="st7" x1="1359.2" y1="450" x2="238.3" y2="450"/>
				<line class="st7" x1="1359.2" y1="465.2" x2="238.3" y2="465.2"/>
				<line class="st7" x1="1359.2" y1="480.4" x2="238.3" y2="480.4"/>
				<line class="st7" x1="1359.2" y1="495.6" x2="238.3" y2="495.6"/>
				<line class="st7" x1="1359.2" y1="510.8" x2="238.3" y2="510.8"/>
				<line class="st7" x1="1359.2" y1="526" x2="238.3" y2="526"/>
				<line class="st7" x1="1359.2" y1="541.2" x2="238.3" y2="541.2"/>
				<line class="st7" x1="1359.2" y1="556.4" x2="238.3" y2="556.4"/>
				<line class="st7" x1="1359.2" y1="571.6" x2="238.3" y2="571.6"/>
				<line class="st7" x1="1359.2" y1="586.8" x2="238.3" y2="586.8"/>
				<line class="st7" x1="1359.2" y1="602" x2="238.3" y2="602"/>
				<line class="st7" x1="1359.2" y1="617.2" x2="238.3" y2="617.2"/>
				<line class="st7" x1="1359.2" y1="632.4" x2="238.3" y2="632.4"/>
				<line class="st7" x1="1359.2" y1="647.6" x2="238.3" y2="647.6"/>
				<line class="st7" x1="1359.2" y1="662.9" x2="238.3" y2="662.9"/>
				<line class="st7" x1="1359.2" y1="678.1" x2="238.3" y2="678.1"/>
				<line class="st7" x1="1359.2" y1="693.3" x2="238.3" y2="693.3"/>
				<line class="st7" x1="1359.2" y1="708.5" x2="238.3" y2="708.5"/>
				<line class="st7" x1="1359.2" y1="723.7" x2="238.3" y2="723.7"/>
				<line class="st7" x1="1359.2" y1="738.9" x2="238.3" y2="738.9"/>
				<line class="st7" x1="1359.2" y1="754.1" x2="238.3" y2="754.1"/>
			</g>
		</g>
	</g>
	<g>
		<circle class="st8" cx="322.2" cy="190.4" r="44.2"/>
		<circle class="st8" cx="407.3" cy="188.2" r="44.2"/>
		<circle class="st8" cx="494.5" cy="188.2" r="44.2"/>
		<circle class="st8" cx="581.8" cy="188.2" r="44.2"/>
		<circle class="st8" cx="669.1" cy="188.2" r="44.2"/>
		<circle class="st8" cx="756.4" cy="188.2" r="44.2"/>
		<circle class="st8" cx="843.6" cy="188.2" r="44.2"/>
		<circle class="st8" cx="322.2" cy="709.6" r="44.2"/>
		<circle class="st8" cx="320" cy="624.5" r="44.2"/>
		<circle class="st8" cx="320" cy="537.3" r="44.2"/>
		<circle class="st8" cx="320" cy="450" r="44.2"/>
		<circle class="st8" cx="320" cy="362.7" r="44.2"/>
		<circle class="st8" cx="320" cy="275.5" r="44.2"/>
		<circle class="st8" cx="1277.8" cy="709.6" r="44.2"/>
		<circle class="st8" cx="1280" cy="624.5" r="44.2"/>
		<circle class="st8" cx="1280" cy="537.3" r="44.2"/>
		<circle class="st8" cx="1280" cy="450" r="44.2"/>
		<circle class="st8" cx="1280" cy="362.7" r="44.2"/>
		<circle class="st8" cx="1280" cy="275.5" r="44.2"/>
		<circle class="st8" cx="930.9" cy="188.2" r="44.2"/>
		<circle class="st8" cx="1018.2" cy="188.2" r="44.2"/>
		<circle class="st8" cx="1105.5" cy="188.2" r="44.2"/>
		<circle class="st8" cx="1192.7" cy="188.2" r="44.2"/>
		<circle class="st8" cx="407.3" cy="711.8" r="44.2"/>
		<circle class="st8" cx="494.5" cy="711.8" r="44.2"/>
		<circle class="st8" cx="581.8" cy="711.8" r="44.2"/>
		<circle class="st8" cx="669.1" cy="711.8" r="44.2"/>
		<circle class="st8" cx="756.4" cy="711.8" r="44.2"/>
		<circle class="st8" cx="843.6" cy="711.8" r="44.2"/>
		<circle class="st8" cx="930.9" cy="711.8" r="44.2"/>
		<circle class="st8" cx="1018.2" cy="711.8" r="44.2"/>
		<circle class="st8" cx="1105.5" cy="711.8" r="44.2"/>
		<circle class="st8" cx="1192.7" cy="711.8" r="44.2"/>
		<circle class="st8" cx="1277.8" cy="190.4" r="44.2"/>
	</g>
	<rect x="311.2" y="179.3" class="st9" width="977.7" height="541.3"/>
	<polygon class="st10" points="1005,652.3 1051.6,478.4 966.2,455.6 919.6,629.4 966.7,624.2 	"/>
	<polygon class="st10" points="1098.2,652.3 1051.6,478.4 1136.9,455.6 1183.5,629.4 1136.4,624.2 	"/>
	<polygon class="st11" points="1051.6,520.4 1018.1,493 974.9,495.5 964,453.6 927.5,430.3 943.3,390 927.5,349.7 964,326.4 
		974.9,284.6 1018.1,287 1051.6,259.6 1085,287 1128.2,284.6 1139.1,326.4 1175.6,349.7 1159.9,390 1175.6,430.3 1139.1,453.6 
		1128.2,495.5 1085,493 	"/>
	<path class="st10" d="M1051.6,478.4c-48.7,0-88.4-39.7-88.4-88.4s39.7-88.4,88.4-88.4c48.7,0,88.4,39.7,88.4,88.4
		S1100.3,478.4,1051.6,478.4z"/>
	<circle class="st12" cx="1051.6" cy="390" r="66.3"/>
	<g>
		<rect x="386.3" y="310.5" class="st1" width="165.5" height="44.2"/>
		<rect x="386.3" y="501.1" class="st0" width="253.6" height="19.4"/>
		<rect x="386.3" y="462.3" class="st0" width="378.8" height="19.4"/>
		<rect x="386.3" y="423.6" class="st0" width="400.4" height="19.4"/>
		<rect x="586.5" y="310.5" class="st1" width="235.6" height="44.2"/>
	</g>
	<rect x="386.3" y="625.2" class="st1" width="200.2" height="6.5"/>
	<rect x="621.9" y="625.2" class="st1" width="200.2" height="6.5"/>
</g>
</svg>
