<svg id="Layer_1" data-name="Layer 1" xmlns="http://www.w3.org/2000/svg" xmlns:xlink="http://www.w3.org/1999/xlink" viewBox="0 0 1600 900"><defs><style>.cls-1{fill:none;}.cls-2{clip-path:url(#clip-path);}.cls-3{fill:#45d0e3;}.cls-4{opacity:0.26;}.cls-5{fill:#36474f;}.cls-6{fill:#84ffff;}.cls-7{fill:#5f7d8c;}.cls-8{fill:#cfd8dc;}.cls-9{fill:#fff;}.cls-10{fill:#b0bec5;}.cls-11{opacity:0.5;}.cls-12{opacity:0.75;}.cls-13{fill:#8fa4af;}.cls-14{fill:#77909d;}.cls-15{fill:#445a64;}.cls-16{opacity:0.48;fill:url(#linear-gradient);}.cls-17{fill:#eceff1;}.cls-18{fill:#0297a7;}.cls-19{fill:#00b8d4;}.cls-20{fill:#00e5ff;}</style><clipPath id="clip-path"><rect class="cls-1" width="1600" height="900"/></clipPath><linearGradient id="linear-gradient" x1="800.33" y1="-42.42" x2="800.33" y2="558.3" gradientUnits="userSpaceOnUse"><stop offset="0" stop-color="#fff" stop-opacity="0"/><stop offset="1" stop-color="#ffecaf"/></linearGradient></defs><title>Learn-Online</title><g class="cls-2"><rect class="cls-3" x="-0.8" y="-0.85" width="1600.8" height="901.22"/><g class="cls-4"><rect class="cls-5" y="759.54" width="1600" height="141.31"/></g><path class="cls-5" d="M504.41,314.26h591a20.44,20.44,0,0,1,20.44,20.44V724.43a0,0,0,0,1,0,0H484a0,0,0,0,1,0,0V334.7A20.44,20.44,0,0,1,504.41,314.26Z"/><rect class="cls-6" x="511.57" y="341.86" width="576.67" height="354.96"/><circle class="cls-7" cx="799.91" cy="328.06" r="7.04"/><rect class="cls-8" x="511.57" y="341.86" width="576.67" height="354.96"/><rect class="cls-9" x="539.81" y="365.5" width="520.18" height="331.32"/><rect class="cls-10" x="746.72" y="490.6" width="266.98" height="86.5"/><rect class="cls-7" x="746.72" y="426.41" width="234.49" height="6.91"/><rect class="cls-7" x="746.72" y="445.13" width="244.37" height="6.91"/><rect class="cls-7" x="746.72" y="463.86" width="216.69" height="6.91"/><g class="cls-11"><rect class="cls-7" x="777.58" y="512.61" width="51.47" height="6.91"/></g><g class="cls-11"><rect class="cls-7" x="871.82" y="512.61" width="85.12" height="6.91"/></g><g class="cls-11"><rect class="cls-7" x="838.26" y="512.61" width="24.35" height="6.91"/></g><g class="cls-11"><rect class="cls-7" x="777.58" y="531.34" width="113.98" height="6.91"/></g><rect class="cls-10" x="746.72" y="661.14" width="266.98" height="35.69"/><rect class="cls-7" x="746.72" y="596.94" width="252.91" height="6.91"/><rect class="cls-7" x="746.72" y="615.67" width="230.56" height="6.91"/><rect class="cls-7" x="746.72" y="634.39" width="244.32" height="6.91"/><g class="cls-11"><rect class="cls-7" x="777.58" y="683.15" width="37.28" height="6.91"/></g><g class="cls-11"><rect class="cls-7" x="824.04" y="683.15" width="113.98" height="6.91"/></g><g class="cls-11"><rect class="cls-7" x="900.77" y="531.34" width="77.15" height="6.91"/></g><g class="cls-11"><rect class="cls-7" x="777.58" y="550.06" width="189.35" height="6.91"/></g><rect class="cls-10" x="539.81" y="360.9" width="520.18" height="15.33"/><path class="cls-7" d="M412.17,724.43h775.47a0,0,0,0,1,0,0v18a20.44,20.44,0,0,1-20.44,20.44H432.61a20.44,20.44,0,0,1-20.44-20.44v-18A0,0,0,0,1,412.17,724.43Z"/><g class="cls-12"><path class="cls-5" d="M412.17,724.43h775.47a0,0,0,0,1,0,0v18a20.44,20.44,0,0,1-20.44,20.44H432.61a20.44,20.44,0,0,1-20.44-20.44v-18A0,0,0,0,1,412.17,724.43Z"/></g><rect class="cls-13" x="579.34" y="415.97" width="138.96" height="254.54"/><rect class="cls-14" x="579.34" y="585.87" width="138.96" height="84.63"/><polygon class="cls-15" points="673.65 582.17 624 582.17 606.7 514.21 690.95 514.21 673.65 582.17"/><circle class="cls-15" cx="648.82" cy="467.67" r="15.66"/><path class="cls-15" d="M648.82,488.06A29.08,29.08,0,0,1,676,507H621.6A29.08,29.08,0,0,1,648.82,488.06Z"/><rect class="cls-15" x="587.08" y="506.96" width="123.5" height="7.39" transform="translate(1297.65 1021.31) rotate(180)"/><rect class="cls-15" x="606.7" y="582.17" width="84.25" height="7.39" transform="translate(1297.65 1171.74) rotate(180)"/><polygon class="cls-16" points="483.95 724.49 152.87 1 1447.79 1 1115.8 723.8 483.95 724.49"/><path class="cls-17" d="M799.77,147.86h0a6,6,0,0,1-6-6.06L794,68.22a6,6,0,0,1,6-6h0a6,6,0,0,1,6,6.06l-0.27,73.58A6,6,0,0,1,799.77,147.86Z"/><path class="cls-17" d="M660.14,205.67a6,6,0,0,1-4.87-1.6l-53.56-50.45a6,6,0,1,1,8.28-8.79l53.56,50.45A6,6,0,0,1,660.14,205.67Z"/><path class="cls-17" d="M940,205.67a6,6,0,0,0,4.87-1.6l53.56-50.45a6,6,0,1,0-8.28-8.79l-53.56,50.45A6,6,0,0,0,940,205.67Z"/><path class="cls-18" d="M799.91,457.82c-77.36,0-140.3-62.94-140.3-140.3s62.94-140.3,140.3-140.3,140.3,62.94,140.3,140.3S877.27,457.82,799.91,457.82Z"/><circle class="cls-9" cx="799.91" cy="317.52" r="109.48" transform="translate(-0.74 1.86) rotate(-0.13)"/><polygon class="cls-19" points="800.11 403.25 778.07 385.3 749.69 386.97 742.42 359.48 718.43 344.2 728.71 317.69 718.31 291.22 742.22 275.83 749.37 248.31 777.75 249.85 799.71 231.79 821.74 249.75 850.12 248.07 857.39 275.56 881.38 290.84 871.1 317.36 881.51 343.83 857.59 359.21 850.44 386.73 822.06 385.19 800.11 403.25"/><path class="cls-6" d="M800,375.64a58.12,58.12,0,1,1,58-58.26A58.19,58.19,0,0,1,800,375.64Z"/><circle class="cls-20" cx="799.91" cy="317.52" r="43.59" transform="translate(-0.74 1.86) rotate(-0.13)"/><path class="cls-9" d="M827,306.92l-16.35,0a3,3,0,0,1-2.85-2.06l-5.09-15.54a3,3,0,0,0-5.69,0l-5,15.56a3,3,0,0,1-2.84,2.07l-16.35,0a3,3,0,0,0-1.75,5.41L784.29,322a3,3,0,0,1,1.09,3.34l-5,15.56a3,3,0,0,0,4.61,3.33l13.21-9.64a3,3,0,0,1,3.52,0L815,344.2a3,3,0,0,0,4.59-3.35l-5.09-15.54a3,3,0,0,1,1.08-3.35l13.21-9.64A3,3,0,0,0,827,306.92Z"/></g></svg>